<svg width="984" height="555" viewBox="0 0 984 555" fill="none" xmlns="http://www.w3.org/2000/svg">
<rect width="984" height="554.126"/>
<path fill-rule="evenodd" clip-rule="evenodd" d="M927.5 266.284C927.5 266.56 927.276 266.784 927 266.784C919.235 266.784 915.096 268.499 908.479 271.243C907.962 271.457 907.429 271.678 906.879 271.904C905.957 272.284 904.907 272.05 903.858 271.512C902.799 270.968 901.642 270.066 900.437 268.937C898.022 266.676 895.319 263.416 892.681 260.004C890.912 257.716 889.16 255.344 887.538 253.147C886.74 252.067 885.974 251.029 885.252 250.064C884.153 248.596 883.158 247.297 882.305 246.264C881.443 245.22 880.756 244.484 880.27 244.112C867.304 234.197 849.184 242.271 846.081 256.236C845.317 259.676 844.492 262.261 843.594 264.156C842.697 266.048 841.709 267.293 840.596 268C838.323 269.444 835.799 268.501 833.231 267.122C832.465 266.71 831.686 266.256 830.889 265.79C828.925 264.644 826.847 263.432 824.566 262.632C821.406 261.523 817.935 261.247 814.06 263.184C812.877 263.776 811.211 265.187 809.343 267.027C807.49 268.852 805.485 271.051 803.63 273.168C801.779 275.281 800.082 277.305 798.843 278.784L798.838 278.79C798.219 279.529 797.712 280.134 797.358 280.544C797.182 280.747 797.038 280.91 796.935 281.018C796.887 281.069 796.832 281.123 796.781 281.165L796.78 281.166C796.763 281.179 796.701 281.231 796.614 281.264C796.58 281.276 796.431 281.332 796.252 281.264C796.015 281.174 795.944 280.963 795.93 280.854C795.311 275.902 792.533 270.563 788.621 266.662C784.706 262.759 779.733 260.368 774.74 261.136C766.661 262.379 761.995 267.254 758.106 273.12C756.862 274.997 755.711 276.952 754.553 278.92C753.89 280.047 753.224 281.178 752.537 282.301C750.662 285.366 748.648 288.332 746.162 290.817C745.855 291.125 745.512 291.322 745.136 291.393C744.762 291.463 744.401 291.4 744.071 291.266C743.434 291.009 742.836 290.458 742.306 289.899C742.035 289.613 741.766 289.308 741.508 289.014L741.506 289.012C741.246 288.717 740.998 288.434 740.755 288.179C740.511 287.922 740.285 287.705 740.073 287.539C739.858 287.371 739.683 287.276 739.546 287.237C737.67 286.701 735.151 286.578 732.597 286.717C730.05 286.856 727.513 287.251 725.619 287.725C722.58 288.485 718.722 290.484 714.414 293.031C712.076 294.413 709.644 295.933 707.157 297.488C705.049 298.805 702.902 300.147 700.738 301.451C696.055 304.275 691.359 306.88 687.073 308.503C682.806 310.118 678.841 310.799 675.674 309.633C673.253 308.74 671.116 307.788 669.105 306.864C668.752 306.702 668.403 306.542 668.057 306.382C666.43 305.631 664.873 304.913 663.282 304.269C659.441 302.715 655.42 301.603 649.893 301.603C647.352 301.603 645.918 302.146 644.967 302.818C644.485 303.159 644.109 303.544 643.766 303.946C643.616 304.121 643.476 304.296 643.333 304.474L643.266 304.557C643.102 304.761 642.933 304.968 642.756 305.164C642.399 305.56 641.992 305.933 641.457 306.201C640.919 306.47 640.283 306.618 639.488 306.612C637.925 306.598 635.704 305.983 632.281 304.462C627.167 302.189 622.576 298.549 618.041 294.774C617.511 294.333 616.981 293.89 616.452 293.447C612.435 290.084 608.415 286.718 604.019 284.124C602.581 283.275 600.038 281.422 596.826 279.082C595.707 278.266 594.506 277.391 593.243 276.479C588.332 272.933 582.431 268.792 576.528 265.256C570.615 261.715 564.743 258.807 559.884 257.698C557.456 257.144 555.324 257.049 553.582 257.514C551.862 257.974 550.499 258.986 549.584 260.714C546.827 265.923 547.022 271.656 547.222 277.513C547.238 277.97 547.253 278.428 547.267 278.887C547.462 285.166 547.391 291.526 543.089 297.058C537.097 304.762 532.877 314.292 532.877 324.316C532.877 326.865 532.135 334.416 531.019 341.005C530.461 344.3 529.804 347.386 529.09 349.5C528.738 350.545 528.352 351.411 527.923 351.94C527.708 352.204 527.437 352.442 527.098 352.527C526.724 352.62 526.376 352.502 526.092 352.266C523.369 349.996 518.831 348.873 513.343 348.317C508.648 347.842 503.348 347.788 498.051 347.734C497.18 347.725 496.31 347.717 495.442 347.706C489.314 347.63 483.318 347.461 478.501 346.519C473.714 345.583 469.904 343.847 468.407 340.478C467.476 338.386 467.088 336.363 466.819 334.524C466.757 334.102 466.701 333.693 466.648 333.296C466.465 331.942 466.302 330.735 465.966 329.656C465.544 328.297 464.861 327.199 463.539 326.383C462.193 325.553 460.138 324.986 456.908 324.816C452.332 324.575 449.231 323.762 447.128 322.381C444.999 320.982 443.951 319.041 443.395 316.697C442.915 314.676 442.793 312.312 442.659 309.709C442.639 309.333 442.62 308.952 442.599 308.566C442.431 305.489 442.175 302.059 441.295 298.316C441.153 297.713 441.008 296.821 440.844 295.807C440.796 295.511 440.746 295.205 440.694 294.892C440.463 293.493 440.185 291.942 439.819 290.535C439.449 289.114 439.003 287.897 438.459 287.129C438.19 286.749 437.922 286.516 437.664 286.404C437.422 286.299 437.148 286.283 436.804 286.416C428.485 289.651 419.93 291.916 411.349 294.186L410.797 294.332C404.018 296.127 399.363 297.098 396.078 297.242C392.776 297.387 390.75 296.699 389.356 295.067C388.677 294.272 388.172 293.28 387.732 292.128C387.291 290.976 386.902 289.632 386.47 288.121L386.416 287.932C385.557 284.934 384.496 281.227 382.487 276.807C380.75 272.985 378.341 270.365 375.591 268.019C374.36 266.968 373.065 265.977 371.728 264.953C371.568 264.829 371.406 264.706 371.244 264.581C369.739 263.427 368.19 262.221 366.651 260.854C365.534 259.861 363.772 258.82 361.7 257.715C360.791 257.231 359.807 256.726 358.8 256.21C357.565 255.576 356.297 254.925 355.094 254.274C352.883 253.078 350.767 251.815 349.156 250.475C347.56 249.148 346.369 247.672 346.176 246.03C345.787 242.731 344.482 241.21 342.809 240.661C341.064 240.088 338.749 240.507 336.23 241.513C331.219 243.513 325.829 247.651 323.61 249.425C320.905 251.59 318.228 253.7 315.587 255.782C296.243 271.034 278.806 284.782 266.022 307.155L265.926 307.322C264.754 309.376 260.684 316.506 256.74 321.098C255.724 322.282 254.701 323.315 253.724 324.052C252.763 324.777 251.773 325.272 250.837 325.251C249.835 325.23 249.04 324.629 248.494 323.516C247.96 322.428 247.63 320.796 247.517 318.538C247.178 311.759 244.685 304.513 241.463 297.476C238.946 291.979 236 286.642 233.315 281.777C232.562 280.414 231.831 279.088 231.134 277.806C218.019 253.657 203.479 228.775 180.67 212.852C179.015 211.697 177.536 210.69 176.194 209.777C172.62 207.345 170.022 205.577 167.684 203.434C164.447 200.467 161.704 196.782 157.474 189.645C157.162 189.118 156.848 188.587 156.533 188.053C152.217 180.748 147.606 172.942 141.92 167.558C138.878 164.678 135.55 162.514 131.823 161.492C128.102 160.471 123.947 160.577 119.226 162.294C117.581 162.892 115.821 164.106 114.031 165.713C112.246 167.315 110.456 169.285 108.75 171.363C105.965 174.753 103.424 178.4 101.494 181.172C101.057 181.8 100.651 182.383 100.28 182.908C86.4955 202.436 68.8332 217.663 50.9628 233.07C48.0851 235.551 45.202 238.036 42.3289 240.545C42.1208 240.727 41.805 240.706 41.6233 240.498C41.4418 240.29 41.4631 239.974 41.6711 239.792C44.553 237.276 47.4414 234.785 50.3216 232.302C68.1965 216.89 85.7552 201.751 99.4631 182.331C99.8283 181.814 100.23 181.236 100.665 180.613C102.595 177.841 105.164 174.152 107.977 170.728C109.701 168.629 111.526 166.617 113.363 164.969C115.195 163.324 117.066 162.016 118.884 161.355C123.782 159.574 128.149 159.447 132.087 160.527C136.018 161.605 139.486 163.876 142.607 166.832C148.401 172.317 153.081 180.242 157.377 187.515C157.698 188.059 158.017 188.6 158.335 189.135C162.549 196.247 165.232 199.83 168.36 202.697C170.641 204.788 173.155 206.499 176.698 208.91C178.049 209.829 179.549 210.85 181.242 212.032C204.269 228.107 218.905 253.194 232.013 277.329C232.703 278.599 233.43 279.916 234.179 281.273C236.867 286.143 239.837 291.524 242.372 297.059C245.612 304.137 248.167 311.52 248.516 318.488C248.626 320.7 248.948 322.17 249.392 323.076C249.824 323.957 250.333 324.24 250.859 324.252C251.45 324.264 252.212 323.94 253.122 323.253C254.018 322.578 254.987 321.605 255.982 320.447C259.86 315.931 263.89 308.871 265.063 306.817L265.153 306.658C278.04 284.106 295.637 270.235 314.973 254.992C317.614 252.911 320.287 250.803 322.985 248.644C325.201 246.872 330.695 242.645 335.86 240.584C338.429 239.558 341.026 239.023 343.121 239.711C345.289 240.423 346.753 242.38 347.169 245.914C347.315 247.159 348.249 248.421 349.795 249.706C351.327 250.98 353.371 252.205 355.57 253.395C356.789 254.055 358.018 254.685 359.228 255.305C360.228 255.817 361.214 256.323 362.171 256.833C364.239 257.936 366.099 259.025 367.316 260.107C368.825 261.448 370.35 262.634 371.853 263.788C372.015 263.912 372.177 264.036 372.338 264.16C373.672 265.182 374.988 266.19 376.24 267.258C379.057 269.662 381.58 272.394 383.398 276.394C385.438 280.881 386.516 284.648 387.374 287.648L387.431 287.846C387.866 289.366 388.244 290.667 388.666 291.771C389.087 292.873 389.542 293.745 390.116 294.418C391.229 295.72 392.888 296.381 396.035 296.243C399.199 296.104 403.758 295.161 410.541 293.366L411.071 293.226C419.668 290.95 428.176 288.699 436.442 285.484C437.01 285.263 437.558 285.269 438.061 285.486C438.547 285.697 438.946 286.086 439.275 286.551C439.93 287.475 440.411 288.842 440.786 290.283C441.165 291.737 441.449 293.326 441.681 294.729C441.735 295.057 441.787 295.374 441.836 295.676C441.999 296.68 442.135 297.522 442.268 298.087C443.17 301.919 443.429 305.421 443.597 308.512C443.618 308.902 443.638 309.286 443.658 309.661C443.794 312.279 443.911 314.541 444.368 316.466C444.883 318.638 445.819 320.324 447.677 321.545C449.562 322.783 452.453 323.58 456.961 323.817C460.263 323.991 462.512 324.575 464.064 325.532C465.639 326.504 466.445 327.829 466.921 329.359C467.284 330.526 467.462 331.846 467.647 333.217C467.699 333.601 467.751 333.989 467.808 334.379C468.073 336.187 468.445 338.104 469.32 340.072C470.602 342.955 473.95 344.61 478.693 345.538C483.407 346.46 489.314 346.63 495.454 346.706C496.317 346.717 497.185 346.725 498.054 346.734C503.347 346.788 508.699 346.842 513.444 347.322C518.947 347.88 523.758 349.019 526.733 351.498C526.826 351.576 526.855 351.557 526.855 351.556C526.891 351.548 526.992 351.5 527.147 351.309C527.455 350.929 527.795 350.21 528.143 349.18C528.83 347.145 529.476 344.123 530.033 340.838C531.145 334.27 531.877 326.782 531.877 324.316C531.877 314.012 536.211 304.272 542.299 296.444C546.359 291.224 546.463 285.207 546.268 278.918C546.253 278.448 546.237 277.976 546.221 277.503C546.02 271.699 545.812 265.702 548.7 260.246C549.75 258.264 551.344 257.077 553.324 256.548C555.284 256.024 557.596 256.15 560.106 256.723C565.126 257.869 571.11 260.846 577.041 264.398C582.983 267.957 588.912 272.119 593.828 275.668C595.119 276.601 596.338 277.488 597.467 278.311C600.656 280.635 603.134 282.44 604.527 283.263C608.999 285.902 613.086 289.324 617.095 292.681C617.625 293.124 618.153 293.566 618.681 294.005C623.22 297.784 627.715 301.338 632.687 303.548C636.09 305.061 638.151 305.6 639.497 305.612C640.156 305.617 640.632 305.495 641.009 305.306C641.389 305.116 641.7 304.842 642.013 304.495C642.17 304.321 642.323 304.133 642.487 303.93C642.649 303.729 642.821 303.513 643.006 303.297C643.378 302.861 643.815 302.408 644.39 302.002C645.551 301.181 647.202 300.603 649.893 300.603C655.576 300.603 659.726 301.751 663.657 303.342C665.273 303.996 666.855 304.726 668.484 305.478C668.828 305.636 669.173 305.796 669.522 305.956C671.527 306.876 673.636 307.816 676.02 308.694C678.833 309.73 682.504 309.163 686.719 307.567C690.916 305.979 695.547 303.413 700.222 300.595C702.345 299.315 704.49 297.975 706.604 296.654C709.113 295.086 711.577 293.547 713.905 292.17C718.208 289.625 722.18 287.554 725.376 286.755C727.336 286.265 729.937 285.86 732.543 285.719C735.14 285.577 737.788 285.695 739.82 286.275C740.133 286.365 740.425 286.545 740.689 286.752C740.956 286.961 741.222 287.218 741.48 287.49C741.736 287.759 741.995 288.054 742.25 288.344L742.259 288.354C742.519 288.65 742.775 288.94 743.032 289.211C743.558 289.765 744.028 290.17 744.446 290.339C744.644 290.419 744.808 290.437 744.951 290.41C745.093 290.383 745.261 290.304 745.455 290.11C747.855 287.71 749.82 284.825 751.684 281.779C752.351 280.688 753.009 279.571 753.669 278.45C754.838 276.463 756.016 274.463 757.272 272.568C761.227 266.603 766.102 261.453 774.588 260.147C780.007 259.314 785.28 261.92 789.327 265.954C793.109 269.725 795.886 274.806 796.765 279.699C797.1 279.307 797.542 278.779 798.071 278.148L798.078 278.14C799.317 276.661 801.019 274.63 802.878 272.509C804.739 270.385 806.763 268.165 808.641 266.315C810.504 264.479 812.271 262.96 813.612 262.29C817.783 260.205 821.544 260.512 824.897 261.688C827.275 262.522 829.488 263.813 831.48 264.976C832.256 265.429 832.999 265.862 833.704 266.241C836.304 267.637 838.321 268.26 840.059 267.156C840.951 266.589 841.835 265.531 842.69 263.727C843.543 261.927 844.348 259.423 845.105 256.019C848.356 241.387 867.293 232.93 880.877 243.318C881.464 243.766 882.216 244.585 883.076 245.627C883.945 246.679 884.952 247.994 886.052 249.465C886.782 250.44 887.552 251.483 888.352 252.566C889.971 254.758 891.709 257.113 893.472 259.393C896.106 262.799 898.768 266.005 901.12 268.208C902.298 269.31 903.376 270.14 904.315 270.622C905.265 271.109 905.979 271.194 906.498 270.98C907.052 270.752 907.589 270.529 908.111 270.312C914.729 267.568 919.032 265.784 927 265.784C927.276 265.784 927.5 266.007 927.5 266.284Z" fill="white"/>
<path d="M97.0859 136H99.8736C101.564 136 102.327 135.159 102.327 134.044C102.327 132.918 101.539 132.282 100.818 132.243V132.172C101.486 132.002 102.043 131.547 102.043 130.638C102.043 129.562 101.298 128.727 99.7493 128.727H97.0859V136ZM98.1832 135.059V132.73H99.8061C100.687 132.73 101.237 133.298 101.237 133.99C101.237 134.601 100.822 135.059 99.767 135.059H98.1832ZM98.1832 131.874V129.661H99.6818C100.552 129.661 100.967 130.119 100.967 130.723C100.967 131.426 100.392 131.874 99.6534 131.874H98.1832Z" fill="white"/>
<path d="M105.129 136H109.731V135.056H106.226V132.829H109.451V131.888H106.226V129.672H109.689V128.727H105.129V136Z" fill="white"/>
<path d="M112.104 136H112.416C114.071 136 114.469 134.771 114.565 132.435L114.678 129.658H117.161V136H118.244V128.727H113.645L113.521 132.144C113.443 134.249 113.187 135.02 112.317 135.041L112.104 135.048V136Z" fill="white"/>
<path d="M121.342 128.727V136H122.35L126.047 130.666H126.115V136H127.212V128.727H126.196L122.496 134.068H122.428V128.727H121.342Z" fill="white"/>
<path d="M134.62 136H135.959L132.958 132.016L135.977 128.727H134.616L131.786 131.799H131.41V128.727H130.312V136H131.41V132.74H132.163L134.62 136Z" fill="white"/>
<path d="M138.57 128.727V136H139.579L143.276 130.666H143.343V136H144.44V128.727H143.425L139.724 134.068H139.657V128.727H138.57Z" fill="white"/>
<path d="M147.541 128.727V136H148.55L152.246 130.666H152.314V136H153.411V128.727H152.395L148.695 134.068H148.628V128.727H147.541ZM151.174 126.881C151.174 127.24 150.975 127.556 150.478 127.556C149.974 127.556 149.785 127.236 149.785 126.881H148.915C148.915 127.68 149.523 128.23 150.478 128.23C151.44 128.23 152.047 127.68 152.047 126.881H151.174Z" fill="white"/>
<path d="M92.5371 148H93.6344V144.829H97.2601V148H98.361V140.727H97.2601V143.888H93.6344V140.727H92.5371V148Z" fill="white"/>
<path d="M107.776 144.364C107.776 142.038 106.384 140.628 104.502 140.628C102.613 140.628 101.225 142.038 101.225 144.364C101.225 146.686 102.613 148.1 104.502 148.1C106.384 148.1 107.776 146.69 107.776 144.364ZM106.69 144.364C106.69 146.136 105.752 147.098 104.502 147.098C103.249 147.098 102.315 146.136 102.315 144.364C102.315 142.592 103.249 141.629 104.502 141.629C105.752 141.629 106.69 142.592 106.69 144.364Z" fill="white"/>
<path d="M110.645 148H113.432C115.123 148 115.886 147.159 115.886 146.044C115.886 144.918 115.098 144.282 114.377 144.243V144.172C115.044 144.002 115.602 143.547 115.602 142.638C115.602 141.562 114.856 140.727 113.308 140.727H110.645V148ZM111.742 147.059V144.73H113.365C114.245 144.73 114.796 145.298 114.796 145.99C114.796 146.601 114.38 147.059 113.326 147.059H111.742ZM111.742 143.874V141.661H113.24C114.11 141.661 114.526 142.119 114.526 142.723C114.526 143.426 113.951 143.874 113.212 143.874H111.742Z" fill="white"/>
<path d="M123.222 140.727H118.688V148H119.785V141.672H123.222V140.727Z" fill="white"/>
<path d="M131.974 144.364C131.974 142.038 130.582 140.628 128.7 140.628C126.81 140.628 125.422 142.038 125.422 144.364C125.422 146.686 126.81 148.1 128.7 148.1C130.582 148.1 131.974 146.69 131.974 144.364ZM130.887 144.364C130.887 146.136 129.95 147.098 128.7 147.098C127.446 147.098 126.512 146.136 126.512 144.364C126.512 142.592 127.446 141.629 128.7 141.629C129.95 141.629 130.887 142.592 130.887 144.364Z" fill="white"/>
<path d="M134.842 148H135.939V145.443H137.431C139.117 145.443 139.952 144.424 139.952 143.082C139.952 141.743 139.124 140.727 137.434 140.727H134.842V148ZM135.939 144.513V141.669H137.317C138.404 141.669 138.847 142.258 138.847 143.082C138.847 143.906 138.404 144.513 137.331 144.513H135.939Z" fill="white"/>
<path d="M149.056 144.364C149.056 142.038 147.664 140.628 145.782 140.628C143.892 140.628 142.504 142.038 142.504 144.364C142.504 146.686 143.892 148.1 145.782 148.1C147.664 148.1 149.056 146.69 149.056 144.364ZM147.969 144.364C147.969 146.136 147.032 147.098 145.782 147.098C144.528 147.098 143.594 146.136 143.594 144.364C143.594 142.592 144.528 141.629 145.782 141.629C147.032 141.629 147.969 142.592 147.969 144.364Z" fill="white"/>
<path d="M151.373 149.758H152.425V148H157.307V149.747H158.358V147.07H157.535V140.727H153.05L152.879 143.799C152.769 145.823 152.339 146.658 151.853 147.07H151.373V149.758ZM153.145 147.07C153.561 146.406 153.841 145.337 153.93 143.799L154.044 141.672H156.483V147.07H153.145Z" fill="white"/>
<path d="M28.8798 251.727H23.269V259H24.3628V252.665H27.7861V259H28.8798V251.727Z" fill="white"/>
<path d="M38.0982 254.092C37.8497 252.537 36.6316 251.628 35.094 251.628C33.2119 251.628 31.8234 253.038 31.8234 255.364C31.8234 257.69 33.2048 259.1 35.094 259.1C36.692 259.1 37.8603 258.098 38.0982 256.66L36.9903 256.656C36.8021 257.587 36.0208 258.098 35.1011 258.098C33.8546 258.098 32.9136 257.143 32.9136 255.364C32.9136 253.599 33.8511 252.629 35.1046 252.629C36.0315 252.629 36.8092 253.151 36.9903 254.092H38.0982Z" fill="white"/>
<path d="M45.2188 259H46.5576L43.5569 255.016L46.5753 251.727H45.2152L42.385 254.799H42.0086V251.727H40.9113V259H42.0086V255.74H42.7614L45.2188 259Z" fill="white"/>
<path d="M55.1252 255.364C55.1252 253.038 53.7332 251.628 51.8511 251.628C49.9619 251.628 48.5734 253.038 48.5734 255.364C48.5734 257.686 49.9619 259.1 51.8511 259.1C53.7332 259.1 55.1252 257.69 55.1252 255.364ZM54.0386 255.364C54.0386 257.136 53.1011 258.098 51.8511 258.098C50.5975 258.098 49.6636 257.136 49.6636 255.364C49.6636 253.592 50.5975 252.629 51.8511 252.629C53.1011 252.629 54.0386 253.592 54.0386 255.364Z" fill="white"/>
<path d="M57.9933 259H60.7809C62.4713 259 63.2348 258.158 63.2348 257.043C63.2348 255.918 62.4464 255.282 61.7255 255.243V255.172C62.3932 255.002 62.9507 254.547 62.9507 253.638C62.9507 252.562 62.2049 251.727 60.6566 251.727H57.9933V259ZM59.0906 258.059V255.729H60.7135C61.5941 255.729 62.1446 256.298 62.1446 256.99C62.1446 257.601 61.7291 258.059 60.6744 258.059H59.0906ZM59.0906 254.874V252.661H60.5892C61.4592 252.661 61.8747 253.119 61.8747 253.723C61.8747 254.426 61.2994 254.874 60.5608 254.874H59.0906Z" fill="white"/>
<path d="M186.483 279.672H188.749V286H189.843V279.672H192.112V278.728H186.483V279.672Z" fill="white"/>
<path d="M194.856 286H197.643C199.334 286 200.097 285.159 200.097 284.044C200.097 282.918 199.309 282.282 198.588 282.243V282.172C199.256 282.002 199.813 281.547 199.813 280.638C199.813 279.562 199.067 278.728 197.519 278.728H194.856V286ZM195.953 285.059V282.73H197.576C198.457 282.73 199.007 283.298 199.007 283.99C199.007 284.601 198.592 285.059 197.537 285.059H195.953ZM195.953 281.874V279.661H197.452C198.322 279.661 198.737 280.12 198.737 280.723C198.737 281.426 198.162 281.874 197.423 281.874H195.953Z" fill="white"/>
<path d="M202.899 286H207.501V285.056H203.996V282.829H207.22V281.888H203.996V279.672H207.458V278.728H202.899V286Z" fill="white"/>
<path d="M210.424 286H211.521V283.443H213.013C214.7 283.443 215.534 282.424 215.534 281.082C215.534 279.743 214.707 278.728 213.016 278.728H210.424V286ZM211.521 282.513V279.669H212.899C213.986 279.669 214.43 280.258 214.43 281.082C214.43 281.906 213.986 282.513 212.913 282.513H211.521Z" fill="white"/>
<path d="M219.429 281.661V278.728H218.328V286H221.051C222.671 286 223.598 285.098 223.594 283.795C223.598 282.495 222.671 281.661 221.051 281.661H219.429ZM219.429 282.584H221.051C221.992 282.584 222.511 283.124 222.511 283.781C222.511 284.456 221.992 285.077 221.051 285.077H219.429V282.584Z" fill="white"/>
<path d="M284.65 308V300.727H282.057C280.371 300.727 279.54 301.668 279.54 303.007C279.54 303.984 279.984 304.726 280.875 305.056L279.263 308H280.513L281.99 305.248C282.015 305.248 282.036 305.248 282.061 305.248H283.552V308H284.65ZM283.552 304.303H282.16C281.092 304.303 280.644 303.828 280.644 303.007C280.644 302.183 281.092 301.668 282.175 301.668H283.552V304.303Z" fill="white"/>
<path d="M287.744 308H288.842V305.443H290.333C292.02 305.443 292.854 304.424 292.854 303.082C292.854 301.743 292.027 300.727 290.337 300.727H287.744V308ZM288.842 304.513V301.668H290.219C291.306 301.668 291.75 302.258 291.75 303.082C291.75 303.906 291.306 304.513 290.234 304.513H288.842Z" fill="white"/>
<path d="M301.958 304.364C301.958 302.038 300.566 300.628 298.684 300.628C296.795 300.628 295.406 302.038 295.406 304.364C295.406 306.686 296.795 308.1 298.684 308.1C300.566 308.1 301.958 306.69 301.958 304.364ZM300.872 304.364C300.872 306.136 299.934 307.098 298.684 307.098C297.43 307.098 296.497 306.136 296.497 304.364C296.497 302.592 297.43 301.629 298.684 301.629C299.934 301.629 300.872 302.592 300.872 304.364Z" fill="white"/>
<path d="M310.867 303.092C310.618 301.537 309.4 300.628 307.862 300.628C305.98 300.628 304.592 302.038 304.592 304.364C304.592 306.69 305.973 308.1 307.862 308.1C309.46 308.1 310.629 307.098 310.867 305.66L309.759 305.656C309.571 306.587 308.789 307.098 307.87 307.098C306.623 307.098 305.682 306.143 305.682 304.364C305.682 302.599 306.62 301.629 307.873 301.629C308.8 301.629 309.578 302.151 309.759 303.092H310.867Z" fill="white"/>
<path d="M313.129 308H313.442C315.097 308 315.494 306.771 315.59 304.435L315.704 301.658H318.186V308H319.269V300.727H314.671L314.546 304.144C314.468 306.249 314.212 307.02 313.342 307.041L313.129 307.048V308Z" fill="white"/>
<path d="M322.982 308L323.649 306.075H326.49L327.154 308H328.319L325.702 300.727H324.434L321.817 308H322.982ZM323.969 305.152L325.041 302.048H325.098L326.171 305.152H323.969Z" fill="white"/>
<path d="M330.869 308H333.657C335.347 308 336.111 307.158 336.111 306.043C336.111 304.918 335.322 304.282 334.601 304.243V304.172C335.269 304.002 335.827 303.547 335.827 302.638C335.827 301.562 335.081 300.727 333.533 300.727H330.869V308ZM331.967 307.059V304.729H333.589C334.47 304.729 335.021 305.298 335.021 305.99C335.021 306.601 334.605 307.059 333.55 307.059H331.967ZM331.967 303.874V301.661H333.465C334.335 301.661 334.751 302.119 334.751 302.723C334.751 303.426 334.175 303.874 333.437 303.874H331.967Z" fill="white"/>
<path d="M338.362 308H338.674C340.329 308 340.727 306.771 340.823 304.435L340.936 301.658H343.419V308H344.502V300.727H339.903L339.779 304.144C339.701 306.249 339.445 307.02 338.575 307.041L338.362 307.048V308Z" fill="white"/>
<path d="M348.708 303.661V300.727H347.607V308H350.331C351.95 308 352.877 307.098 352.873 305.795C352.877 304.495 351.95 303.661 350.331 303.661H348.708ZM348.708 304.584H350.331C351.272 304.584 351.79 305.124 351.79 305.781C351.79 306.455 351.272 307.077 350.331 307.077H348.708V304.584Z" fill="white"/>
<path d="M362.799 240.727V248H363.843V242.734H363.91L366.055 247.989H366.922L369.067 242.737H369.134V248H370.178V240.727H368.846L366.531 246.381H366.446L364.131 240.727H362.799Z" fill="white"/>
<path d="M374.073 248L374.741 246.075H377.582L378.246 248H379.411L376.794 240.727H375.526L372.909 248H374.073ZM375.061 245.152L376.133 242.048H376.19L377.262 245.152H375.061Z" fill="white"/>
<path d="M381.961 248H383.058V244.829H386.684V248H387.785V240.727H386.684V243.888H383.058V240.727H381.961V248Z" fill="white"/>
<path d="M390.524 241.672H392.79V248H393.884V241.672H396.153V240.727H390.524V241.672Z" fill="white"/>
<path d="M399.411 248.1H399.909C401.045 248.1 401.421 247.464 401.741 246.739L404.255 240.727H403.105L401.407 244.932L399.5 240.727H398.335L400.892 246.185L400.789 246.445C400.633 246.825 400.392 247.134 399.848 247.134H399.411V248.1Z" fill="white"/>
<path d="M406.793 248H407.89V245.443H409.382C411.069 245.443 411.903 244.424 411.903 243.082C411.903 241.743 411.076 240.727 409.385 240.727H406.793V248ZM407.89 244.513V241.668H409.268C410.355 241.668 410.799 242.258 410.799 243.082C410.799 243.906 410.355 244.513 409.282 244.513H407.89Z" fill="white"/>
<path d="M421.007 244.364C421.007 242.038 419.615 240.628 417.733 240.628C415.844 240.628 414.455 242.038 414.455 244.364C414.455 246.686 415.844 248.1 417.733 248.1C419.615 248.1 421.007 246.69 421.007 244.364ZM419.92 244.364C419.92 246.136 418.983 247.098 417.733 247.098C416.479 247.098 415.545 246.136 415.545 244.364C415.545 242.592 416.479 241.629 417.733 241.629C418.983 241.629 419.92 242.592 419.92 244.364Z" fill="white"/>
<path d="M423.875 248H426.663C428.353 248 429.116 247.158 429.116 246.043C429.116 244.918 428.328 244.282 427.607 244.243V244.172C428.275 244.002 428.832 243.547 428.832 242.638C428.832 241.562 428.087 240.727 426.538 240.727H423.875V248ZM424.972 247.059V244.729H426.595C427.476 244.729 428.026 245.298 428.026 245.99C428.026 246.601 427.611 247.059 426.556 247.059H424.972ZM424.972 243.874V241.661H426.471C427.341 241.661 427.756 242.119 427.756 242.723C427.756 243.426 427.181 243.874 426.442 243.874H424.972Z" fill="white"/>
<path d="M438.235 244.364C438.235 242.038 436.843 240.628 434.961 240.628C433.072 240.628 431.684 242.038 431.684 244.364C431.684 246.686 433.072 248.1 434.961 248.1C436.843 248.1 438.235 246.69 438.235 244.364ZM437.149 244.364C437.149 246.136 436.211 247.098 434.961 247.098C433.708 247.098 432.774 246.136 432.774 244.364C432.774 242.592 433.708 241.629 434.961 241.629C436.211 241.629 437.149 242.592 437.149 244.364Z" fill="white"/>
<path d="M419.619 276H420.958L417.957 272.016L420.976 268.727H419.616L416.785 271.799H416.409V268.727H415.312V276H416.409V272.74H417.162L419.619 276Z" fill="white"/>
<path d="M429.525 272.364C429.525 270.038 428.133 268.628 426.251 268.628C424.362 268.628 422.974 270.038 422.974 272.364C422.974 274.686 424.362 276.1 426.251 276.1C428.133 276.1 429.525 274.69 429.525 272.364ZM428.439 272.364C428.439 274.136 427.501 275.098 426.251 275.098C424.998 275.098 424.064 274.136 424.064 272.364C424.064 270.592 424.998 269.629 426.251 269.629C427.501 269.629 428.439 270.592 428.439 272.364Z" fill="white"/>
<path d="M431.732 269.672H433.998V276H435.092V269.672H437.361V268.727H431.732V269.672Z" fill="white"/>
<path d="M440.104 276H444.707V275.055H441.202V272.829H444.426V271.888H441.202V269.672H444.664V268.727H440.104V276Z" fill="white"/>
<path d="M447.079 276H447.392C449.047 276 449.445 274.771 449.54 272.435L449.654 269.658H452.136V276H453.219V268.727H448.621L448.496 272.144C448.418 274.249 448.163 275.02 447.293 275.041L447.079 275.048V276Z" fill="white"/>
<path d="M457.425 271.661V268.727H456.324V276H459.048C460.668 276 461.594 275.098 461.591 273.795C461.594 272.495 460.668 271.661 459.048 271.661H457.425ZM457.425 272.584H459.048C459.989 272.584 460.508 273.124 460.508 273.781C460.508 274.455 459.989 275.077 459.048 275.077H457.425V272.584Z" fill="white"/>
<path d="M464.429 276H465.526V272.829H469.152V276H470.253V268.727H469.152V271.888H465.526V268.727H464.429V276Z" fill="white"/>
<path d="M473.351 268.727V276H474.359L478.056 270.666H478.123V276H479.221V268.727H478.205L474.505 274.068H474.437V268.727H473.351Z" fill="white"/>
<path d="M482.467 268.727V271.128C482.463 272.751 483.447 273.39 485.038 273.39C485.737 273.39 486.341 273.301 486.863 273.152V276H487.95V268.727H486.863V272.215C486.32 272.36 485.645 272.449 485.038 272.449C484.09 272.449 483.55 272.129 483.55 271.128V268.727H482.467Z" fill="white"/>
<path d="M494.264 271.906H491.04V272.825H494.264V271.906Z" fill="white"/>
<path d="M499.722 268.727H498.699C498.66 268.926 498.106 269.846 497.044 269.846V270.748C497.868 270.748 498.44 270.421 498.561 270.208H498.621V276H499.722V268.727Z" fill="white"/>
<path d="M551.334 307.727H546.799V315H547.896V308.672H551.334V307.727Z" fill="white"/>
<path d="M553.52 315H553.832C555.487 315 555.885 313.771 555.981 311.435L556.094 308.658H558.577V315H559.66V307.727H555.061L554.937 311.144C554.859 313.249 554.603 314.02 553.733 314.041L553.52 314.048V315Z" fill="white"/>
<path d="M563.372 315L564.04 313.075H566.881L567.545 315H568.71L566.092 307.727H564.825L562.207 315H563.372ZM564.359 312.152L565.432 309.048H565.489L566.561 312.152H564.359Z" fill="white"/>
<path d="M573.692 315.1C575.177 315.1 576.267 314.212 576.263 313.004C576.267 312.085 575.709 311.424 574.743 311.275V311.218C575.503 311.023 575.997 310.426 575.993 309.609C575.997 308.541 575.12 307.628 573.721 307.628C572.385 307.628 571.313 308.434 571.278 309.617H572.339C572.364 308.949 572.993 308.544 573.706 308.544C574.449 308.544 574.935 308.995 574.932 309.666C574.935 310.369 574.371 310.831 573.564 310.831H572.95V311.726H573.564C574.573 311.726 575.155 312.237 575.155 312.969C575.155 313.676 574.541 314.155 573.685 314.155C572.897 314.155 572.282 313.75 572.24 313.104H571.125C571.171 314.29 572.222 315.1 573.692 315.1Z" fill="white"/>
<path d="M585.523 311.364C585.523 309.038 584.131 307.628 582.248 307.628C580.359 307.628 578.971 309.038 578.971 311.364C578.971 313.686 580.359 315.1 582.248 315.1C584.131 315.1 585.523 313.69 585.523 311.364ZM584.436 311.364C584.436 313.136 583.498 314.098 582.248 314.098C580.995 314.098 580.061 313.136 580.061 311.364C580.061 309.592 580.995 308.629 582.248 308.629C583.498 308.629 584.436 309.592 584.436 311.364Z" fill="white"/>
<path d="M588.391 315H591.178C592.869 315 593.632 314.158 593.632 313.043C593.632 311.918 592.844 311.282 592.123 311.243V311.172C592.79 311.002 593.348 310.547 593.348 309.638C593.348 308.562 592.602 307.727 591.054 307.727H588.391V315ZM589.488 314.059V311.729H591.111C591.991 311.729 592.542 312.298 592.542 312.99C592.542 313.601 592.126 314.059 591.072 314.059H589.488ZM589.488 310.874V308.661H590.987C591.857 308.661 592.272 309.119 592.272 309.723C592.272 310.426 591.697 310.874 590.958 310.874H589.488Z" fill="white"/>
<path d="M554.565 243.251H548.954V250.524H550.048V244.188H553.471V250.524H554.565V243.251Z" fill="white"/>
<path d="M557.743 250.524H562.345V249.579H558.84V247.353H562.065V246.411H558.84V244.196H562.302V243.251H557.743V250.524Z" fill="white"/>
<path d="M565.268 250.524H566.366V247.967H567.857C569.544 247.967 570.378 246.948 570.378 245.605C570.378 244.267 569.551 243.251 567.861 243.251H565.268V250.524ZM566.366 247.036V244.192H567.743C568.83 244.192 569.274 244.782 569.274 245.605C569.274 246.429 568.83 247.036 567.758 247.036H566.366Z" fill="white"/>
<path d="M573.165 243.251V250.524H574.209V245.257H574.276L576.421 250.513H577.288L579.432 245.261H579.5V250.524H580.544V243.251H579.212L576.897 248.904H576.812L574.496 243.251H573.165Z" fill="white"/>
<path d="M584.933 246.184V243.251H583.832V250.524H586.556C588.175 250.524 589.102 249.622 589.098 248.318C589.102 247.019 588.175 246.184 586.556 246.184H584.933ZM584.933 247.108H586.556C587.497 247.108 588.015 247.647 588.015 248.304C588.015 248.979 587.497 249.6 586.556 249.6H584.933V247.108Z" fill="white"/>
<path d="M621.44 281.672H623.706V288H624.8V281.672H627.069V280.727H621.44V281.672Z" fill="white"/>
<path d="M630.91 280.727H629.813V288H630.91V284.911H632.185C632.384 286.906 633.698 288.1 635.434 288.1C637.316 288.1 638.708 286.69 638.708 284.364C638.708 282.038 637.316 280.628 635.434 280.628C633.648 280.628 632.309 281.889 632.167 283.991H630.91V280.727ZM637.622 284.364C637.622 286.136 636.684 287.098 635.434 287.098C634.181 287.098 633.247 286.136 633.247 284.364C633.247 282.592 634.181 281.629 635.434 281.629C636.684 281.629 637.622 282.592 637.622 284.364Z" fill="white"/>
<path d="M641.391 280.727V288H642.435V282.734H642.502L644.647 287.989H645.514L647.659 282.737H647.726V288H648.77V280.727H647.438L645.123 286.381H645.038L642.723 280.727H641.391Z" fill="white"/>
<path d="M652.051 288H656.653V287.055H653.148V284.829H656.373V283.888H653.148V281.672H656.611V280.727H652.051V288Z" fill="white"/>
<path d="M659.576 288H660.674V284.829H664.299V288H665.4V280.727H664.299V283.888H660.674V280.727H659.576V288Z" fill="white"/>
<path d="M669.606 283.661V280.727H668.505V288H671.229C672.848 288 673.775 287.098 673.772 285.795C673.775 284.495 672.848 283.661 671.229 283.661H669.606ZM669.606 284.584H671.229C672.17 284.584 672.689 285.124 672.689 285.781C672.689 286.455 672.17 287.077 671.229 287.077H669.606V284.584Z" fill="white"/>
<path d="M720.454 306.364C720.454 304.038 719.062 302.628 717.18 302.628C715.291 302.628 713.902 304.038 713.902 306.364C713.902 308.686 715.291 310.1 717.18 310.1C719.062 310.1 720.454 308.69 720.454 306.364ZM719.368 306.364C719.368 308.136 718.43 309.098 717.18 309.098C715.926 309.098 714.993 308.136 714.993 306.364C714.993 304.592 715.926 303.629 717.18 303.629C718.43 303.629 719.368 304.592 719.368 306.364Z" fill="white"/>
<path d="M723.322 302.727V310H724.366V304.734H724.434L726.579 309.989H727.445L729.59 304.737H729.657V310H730.702V302.727H729.37L727.055 308.381H726.969L724.654 302.727H723.322Z" fill="white"/>
<path d="M740.023 305.092C739.774 303.537 738.556 302.628 737.019 302.628C735.137 302.628 733.748 304.038 733.748 306.364C733.748 308.69 735.129 310.1 737.019 310.1C738.617 310.1 739.785 309.098 740.023 307.66L738.915 307.656C738.727 308.587 737.945 309.098 737.026 309.098C735.779 309.098 734.838 308.143 734.838 306.364C734.838 304.599 735.776 303.629 737.029 303.629C737.956 303.629 738.734 304.151 738.915 305.092H740.023Z" fill="white"/>
<path d="M747.143 310H748.482L745.482 306.016L748.5 302.727H747.14L744.31 305.799H743.933V302.727H742.836V310H743.933V306.74H744.686L747.143 310Z" fill="white"/>
<path d="M828.378 231H829.717L826.716 227.016L829.734 223.727H828.374L825.544 226.799H825.168V223.727H824.07V231H825.168V227.74H825.92L828.378 231Z" fill="white"/>
<path d="M832.328 231H833.425V228.443H834.917C836.604 228.443 837.438 227.424 837.438 226.082C837.438 224.743 836.611 223.727 834.92 223.727H832.328V231ZM833.425 227.513V224.668H834.803C835.89 224.668 836.334 225.258 836.334 226.082C836.334 226.906 835.89 227.513 834.817 227.513H833.425Z" fill="white"/>
<path d="M840.067 231L840.735 229.075H843.576L844.24 231H845.405L842.788 223.727H841.52L838.903 231H840.067ZM841.055 228.152L842.127 225.048H842.184L843.256 228.152H841.055Z" fill="white"/>
<path d="M853.654 226.092C853.405 224.537 852.187 223.628 850.65 223.628C848.767 223.628 847.379 225.038 847.379 227.364C847.379 229.69 848.76 231.1 850.65 231.1C852.248 231.1 853.416 230.098 853.654 228.66L852.546 228.656C852.358 229.587 851.576 230.098 850.657 230.098C849.41 230.098 848.469 229.143 848.469 227.364C848.469 225.599 849.407 224.629 850.66 224.629C851.587 224.629 852.365 225.151 852.546 226.092H853.654Z" fill="white"/>
<path d="M856.467 231H857.564V227.829H861.19V231H862.291V223.727H861.19V226.888H857.564V223.727H856.467V231Z" fill="white"/>
<path d="M871.706 227.364C871.706 225.038 870.314 223.628 868.432 223.628C866.543 223.628 865.154 225.038 865.154 227.364C865.154 229.686 866.543 231.1 868.432 231.1C870.314 231.1 871.706 229.69 871.706 227.364ZM870.619 227.364C870.619 229.136 869.682 230.098 868.432 230.098C867.178 230.098 866.244 229.136 866.244 227.364C866.244 225.592 867.178 224.629 868.432 224.629C869.682 224.629 870.619 225.592 870.619 227.364Z" fill="white"/>
<path d="M879.425 231V223.727H876.833C875.146 223.727 874.315 224.668 874.315 226.007C874.315 226.984 874.759 227.726 875.65 228.056L874.038 231H875.288L876.765 228.248C876.79 228.248 876.811 228.248 876.836 228.248H878.328V231H879.425ZM878.328 227.303H876.936C875.867 227.303 875.419 226.828 875.419 226.007C875.419 225.183 875.867 224.668 876.95 224.668H878.328V227.303Z" fill="white"/>
<path d="M882.52 231H883.617V228.443H885.108C886.795 228.443 887.63 227.424 887.63 226.082C887.63 224.743 886.802 223.727 885.112 223.727H882.52V231ZM883.617 227.513V224.668H884.995C886.081 224.668 886.525 225.258 886.525 226.082C886.525 226.906 886.081 227.513 885.009 227.513H883.617Z" fill="white"/>
<path d="M896.456 226.092C896.208 224.537 894.99 223.628 893.452 223.628C891.57 223.628 890.182 225.038 890.182 227.364C890.182 229.69 891.563 231.1 893.452 231.1C895.05 231.1 896.219 230.098 896.456 228.66L895.349 228.656C895.16 229.587 894.379 230.098 893.459 230.098C892.213 230.098 891.272 229.143 891.272 227.364C891.272 225.599 892.209 224.629 893.463 224.629C894.39 224.629 895.167 225.151 895.349 226.092H896.456Z" fill="white"/>
<path d="M903.577 231H904.916L901.915 227.016L904.934 223.727H903.574L900.743 226.799H900.367V223.727H899.27V231H900.367V227.74H901.12L903.577 231Z" fill="white"/>
<path d="M898.893 288.1H899.39C900.526 288.1 900.903 287.464 901.222 286.739L903.737 280.727H902.586L900.889 284.932L898.982 280.727H897.817L900.374 286.185L900.271 286.445C900.114 286.825 899.873 287.134 899.33 287.134H898.893V288.1Z" fill="white"/>
<path d="M905.724 288H906.037C907.691 288 908.089 286.771 908.185 284.435L908.299 281.658H910.781V288H911.864V280.727H907.265L907.141 284.144C907.063 286.249 906.807 287.02 905.937 287.041L905.724 287.048V288Z" fill="white"/>
<path d="M915.576 288L916.244 286.075H919.085L919.749 288H920.914L918.296 280.727H917.029L914.412 288H915.576ZM916.564 285.152L917.636 282.048H917.693L918.765 285.152H916.564Z" fill="white"/>
<path d="M923.464 288H924.561V284.829H928.187V288H929.288V280.727H928.187V283.888H924.561V280.727H923.464V288Z" fill="white"/>
<path d="M935.514 283.906H932.29V284.825H935.514V283.906Z" fill="white"/>
<path d="M938.395 288.1H938.892C940.028 288.1 940.405 287.464 940.724 286.739L943.239 280.727H942.088L940.391 284.932L938.484 280.727H937.319L939.876 286.185L939.773 286.445C939.616 286.825 939.375 287.134 938.832 287.134H938.395V288.1Z" fill="white"/>
<path d="M945.226 289.758H946.277V288H951.16V289.747H952.211V287.07H951.387V280.727H946.902L946.732 283.799C946.622 285.823 946.192 286.658 945.705 287.07H945.226V289.758ZM946.998 287.07C947.413 286.406 947.694 285.337 947.783 283.799L947.896 281.672H950.336V287.07H946.998Z" fill="white"/>
<path d="M954.682 285.692C954.821 287.07 955.723 288.1 957.477 288.1C959.231 288.1 960.353 286.789 960.353 284.751V283.994C960.353 281.956 959.217 280.628 957.417 280.628C955.705 280.628 954.821 281.672 954.679 283.078H955.797C955.911 282.134 956.355 281.573 957.417 281.573C958.585 281.573 959.238 282.517 959.242 283.987H956.561V284.918H959.238C959.192 286.2 958.631 287.169 957.477 287.169C956.387 287.169 955.922 286.651 955.797 285.692H954.682Z" fill="white"/>
<path d="M129.743 160.337C129.743 162.266 128.179 163.83 126.25 163.83C124.321 163.83 122.757 162.266 122.757 160.337C122.757 158.408 124.321 156.844 126.25 156.844C128.179 156.844 129.743 158.408 129.743 160.337Z" fill="#272722"/>
<path fill-rule="evenodd" clip-rule="evenodd" d="M126.25 162.83C127.627 162.83 128.743 161.713 128.743 160.337C128.743 158.96 127.627 157.844 126.25 157.844C124.873 157.844 123.757 158.96 123.757 160.337C123.757 161.713 124.873 162.83 126.25 162.83ZM126.25 163.83C128.179 163.83 129.743 162.266 129.743 160.337C129.743 158.408 128.179 156.844 126.25 156.844C124.321 156.844 122.757 158.408 122.757 160.337C122.757 162.266 124.321 163.83 126.25 163.83Z" fill="white"/>
<path d="M43.9858 241.493C43.9858 243.422 42.422 244.986 40.4929 244.986C38.5638 244.986 37 243.422 37 241.493C37 239.564 38.5638 238 40.4929 238C42.422 238 43.9858 239.564 43.9858 241.493Z" fill="#131313"/>
<path fill-rule="evenodd" clip-rule="evenodd" d="M40.4929 243.986C41.8697 243.986 42.9858 242.87 42.9858 241.493C42.9858 240.116 41.8697 239 40.4929 239C39.1161 239 38 240.116 38 241.493C38 242.87 39.1161 243.986 40.4929 243.986ZM40.4929 244.986C42.422 244.986 43.9858 243.422 43.9858 241.493C43.9858 239.564 42.422 238 40.4929 238C38.5638 238 37 239.564 37 241.493C37 243.422 38.5638 244.986 40.4929 244.986Z" fill="white"/>
<path d="M238.023 282.59C238.023 284.519 236.459 286.083 234.53 286.083C232.601 286.083 231.037 284.519 231.037 282.59C231.037 280.661 232.601 279.097 234.53 279.097C236.459 279.097 238.023 280.661 238.023 282.59Z" fill="#4D5648"/>
<path fill-rule="evenodd" clip-rule="evenodd" d="M234.53 285.083C235.907 285.083 237.023 283.966 237.023 282.59C237.023 281.213 235.907 280.097 234.53 280.097C233.153 280.097 232.037 281.213 232.037 282.59C232.037 283.966 233.153 285.083 234.53 285.083ZM234.53 286.083C236.459 286.083 238.023 284.519 238.023 282.59C238.023 280.661 236.459 279.097 234.53 279.097C232.601 279.097 231.037 280.661 231.037 282.59C231.037 284.519 232.601 286.083 234.53 286.083Z" fill="white"/>
<path d="M270.333 304.421C270.333 306.35 268.769 307.914 266.84 307.914C264.911 307.914 263.347 306.35 263.347 304.421C263.347 302.492 264.911 300.928 266.84 300.928C268.769 300.928 270.333 302.492 270.333 304.421Z" fill="#47443E"/>
<path fill-rule="evenodd" clip-rule="evenodd" d="M266.84 306.914C268.216 306.914 269.333 305.797 269.333 304.421C269.333 303.044 268.216 301.928 266.84 301.928C265.463 301.928 264.347 303.044 264.347 304.421C264.347 305.797 265.463 306.914 266.84 306.914ZM266.84 307.914C268.769 307.914 270.333 306.35 270.333 304.421C270.333 302.492 268.769 300.928 266.84 300.928C264.911 300.928 263.347 302.492 263.347 304.421C263.347 306.35 264.911 307.914 266.84 307.914Z" fill="white"/>
<path d="M358.529 253.773C358.529 255.702 356.965 257.266 355.036 257.266C353.107 257.266 351.543 255.702 351.543 253.773C351.543 251.844 353.107 250.28 355.036 250.28C356.965 250.28 358.529 251.844 358.529 253.773Z" fill="#93A47C"/>
<path fill-rule="evenodd" clip-rule="evenodd" d="M355.036 256.266C356.413 256.266 357.529 255.15 357.529 253.773C357.529 252.396 356.413 251.28 355.036 251.28C353.659 251.28 352.543 252.396 352.543 253.773C352.543 255.15 353.659 256.266 355.036 256.266ZM355.036 257.266C356.965 257.266 358.529 255.702 358.529 253.773C358.529 251.844 356.965 250.28 355.036 250.28C353.107 250.28 351.543 251.844 351.543 253.773C351.543 255.702 353.107 257.266 355.036 257.266Z" fill="white"/>
<path d="M436.246 287.83C436.246 289.759 434.682 291.323 432.753 291.323C430.824 291.323 429.26 289.759 429.26 287.83C429.26 285.901 430.824 284.337 432.753 284.337C434.682 284.337 436.246 285.901 436.246 287.83Z" fill="#738F8C"/>
<path fill-rule="evenodd" clip-rule="evenodd" d="M432.753 290.323C434.13 290.323 435.246 289.207 435.246 287.83C435.246 286.453 434.13 285.337 432.753 285.337C431.376 285.337 430.26 286.453 430.26 287.83C430.26 289.207 431.376 290.323 432.753 290.323ZM432.753 291.323C434.682 291.323 436.246 289.759 436.246 287.83C436.246 285.901 434.682 284.337 432.753 284.337C430.824 284.337 429.26 285.901 429.26 287.83C429.26 289.759 430.824 291.323 432.753 291.323Z" fill="white"/>
<path d="M538.414 311.406C538.414 313.335 536.85 314.899 534.921 314.899C532.992 314.899 531.428 313.335 531.428 311.406C531.428 309.477 532.992 307.913 534.921 307.913C536.85 307.913 538.414 309.477 538.414 311.406Z" fill="#789186"/>
<path fill-rule="evenodd" clip-rule="evenodd" d="M534.921 313.899C536.297 313.899 537.414 312.783 537.414 311.406C537.414 310.029 536.297 308.913 534.921 308.913C533.544 308.913 532.428 310.029 532.428 311.406C532.428 312.783 533.544 313.899 534.921 313.899ZM534.921 314.899C536.85 314.899 538.414 313.335 538.414 311.406C538.414 309.477 536.85 307.913 534.921 307.913C532.992 307.913 531.428 309.477 531.428 311.406C531.428 313.335 532.992 314.899 534.921 314.899Z" fill="white"/>
<path d="M571.596 259.886C571.596 261.816 570.032 263.379 568.103 263.379C566.174 263.379 564.61 261.816 564.61 259.886C564.61 257.957 566.174 256.394 568.103 256.394C570.032 256.394 571.596 257.957 571.596 259.886Z" fill="#8CBABB"/>
<path fill-rule="evenodd" clip-rule="evenodd" d="M568.103 262.379C569.48 262.379 570.596 261.263 570.596 259.886C570.596 258.51 569.48 257.394 568.103 257.394C566.726 257.394 565.61 258.51 565.61 259.886C565.61 261.263 566.726 262.379 568.103 262.379ZM568.103 263.379C570.032 263.379 571.596 261.816 571.596 259.886C571.596 257.957 570.032 256.394 568.103 256.394C566.174 256.394 564.61 257.957 564.61 259.886C564.61 261.816 566.174 263.379 568.103 263.379Z" fill="white"/>
<path d="M628.356 299.181C628.356 301.11 626.793 302.674 624.864 302.674C622.934 302.674 621.371 301.11 621.371 299.181C621.371 297.252 622.934 295.688 624.864 295.688C626.793 295.688 628.356 297.252 628.356 299.181Z" fill="#414847"/>
<path fill-rule="evenodd" clip-rule="evenodd" d="M624.864 301.674C626.24 301.674 627.356 300.558 627.356 299.181C627.356 297.805 626.24 296.688 624.864 296.688C623.487 296.688 622.371 297.805 622.371 299.181C622.371 300.558 623.487 301.674 624.864 301.674ZM624.864 302.674C626.793 302.674 628.356 301.11 628.356 299.181C628.356 297.252 626.793 295.688 624.864 295.688C622.934 295.688 621.371 297.252 621.371 299.181C621.371 301.11 622.934 302.674 624.864 302.674Z" fill="white"/>
<path d="M734.017 286.083C734.017 288.012 732.453 289.576 730.524 289.576C728.595 289.576 727.031 288.012 727.031 286.083C727.031 284.154 728.595 282.59 730.524 282.59C732.453 282.59 734.017 284.154 734.017 286.083Z" fill="#577379"/>
<path fill-rule="evenodd" clip-rule="evenodd" d="M730.524 288.576C731.9 288.576 733.017 287.46 733.017 286.083C733.017 284.706 731.9 283.59 730.524 283.59C729.147 283.59 728.031 284.706 728.031 286.083C728.031 287.46 729.147 288.576 730.524 288.576ZM730.524 289.576C732.453 289.576 734.017 288.012 734.017 286.083C734.017 284.154 732.453 282.59 730.524 282.59C728.595 282.59 727.031 284.154 727.031 286.083C727.031 288.012 728.595 289.576 730.524 289.576Z" fill="white"/>
<path d="M868.947 238.928C868.947 240.858 867.383 242.421 865.454 242.421C863.525 242.421 861.961 240.858 861.961 238.928C861.961 236.999 863.525 235.436 865.454 235.436C867.383 235.436 868.947 236.999 868.947 238.928Z" fill="#3E403A"/>
<path fill-rule="evenodd" clip-rule="evenodd" d="M865.454 241.421C866.831 241.421 867.947 240.305 867.947 238.928C867.947 237.552 866.831 236.436 865.454 236.436C864.077 236.436 862.961 237.552 862.961 238.928C862.961 240.305 864.077 241.421 865.454 241.421ZM865.454 242.421C867.383 242.421 868.947 240.858 868.947 238.928C868.947 236.999 867.383 235.436 865.454 235.436C863.525 235.436 861.961 236.999 861.961 238.928C861.961 240.858 863.525 242.421 865.454 242.421Z" fill="white"/>
<path d="M931.986 266.493C931.986 268.422 930.422 269.986 928.493 269.986C926.564 269.986 925 268.422 925 266.493C925 264.564 926.564 263 928.493 263C930.422 263 931.986 264.564 931.986 266.493Z" fill="#181A19"/>
<path fill-rule="evenodd" clip-rule="evenodd" d="M928.493 268.986C929.87 268.986 930.986 267.87 930.986 266.493C930.986 265.116 929.87 264 928.493 264C927.116 264 926 265.116 926 266.493C926 267.87 927.116 268.986 928.493 268.986ZM928.493 269.986C930.422 269.986 931.986 268.422 931.986 266.493C931.986 264.564 930.422 263 928.493 263C926.564 263 925 264.564 925 266.493C925 268.422 926.564 269.986 928.493 269.986Z" fill="white"/>
</svg>
